<svg xmlns="http://www.w3.org/2000/svg" width="75" height="70" viewBox="0 0 75 70"><path fill-rule="evenodd" clip-rule="evenodd" fill="#F9E9DB" d="M70.9 34.1s-6-6-9.1-9.4c-3-3.5-2-5.4-1.9-7.6.1-2.3.2-2.3 1.2-3.3 1-1.1 2.5-2.1 2.8-2.9.3-.8.5-.9.1-1.3s-.3-.7-.8-.8c-.5 0-.3-.5-.7-.7-.3-.2-.7-.4-1.3-1-.6-.7-.3-1-.7-1-.4 0-.8-.2-.8-.6 0-.4.1-1.2.1-1.5 0-.4-2.4-.1-3.4-.5s-1.1-1.2-3.2-2.4C51.1-.2 49.4-.1 45.9-.2c-3.5-.1-7.5 3.8-8.6 7.5-1.1 3.7-.5 5.7-1.3 8.6s-2 6-2 6-7 .1-8.3-.3c-1.3-.4-2.9-1.5-5.4-1.1s-4.7.5-5.2 1 .8.5 1.6.5c.8-.1 2.3-.2 2.1.3-.1.5-1.5 1.2-2.9 1.7-1.5.5-2.7.5-3.4.8-.7.2.5 1.4 1.8 1.8 1.3.4 3.1.3 3.3.8.2.5 1.2.9 2.1.7.9-.2 3.7-1.9 3.7-1.9s1.8-1.3 3.4-1c1.6.2 5.9 1.3 5.4 1.8s-1.8 3.6-7 6.5-7.4 3-7.4 3 1.9.7 4.6-.1c2.7-.8 12.2-3.7 12.2-3.7S19.7 44.3 17.4 44.5c-2.3.2-5.7-.2-6.7.1-1 .4-2 .8-3 .8s-3.4.1-4.3.2c-.9.1-2 1.8.1 1.9 2.1.1 5.8-.4 5.8.1-.1.5-.5 1.9-1.3 2.5s-2 1.8-2.5 2.3c-.5.5-2.2 1.8-3.1 2.3-.9.5-2 1.5-2.2 2-.2.5 1.2 1.7 5.5 1.6 4.3-.1 6.3-1.5 8.9-3.6 2.6-2.1 4.4-4.1 6.6-5.4 2.3-1.3 8.5-3.2 11.4-4.5C35.5 43.5 43 40 43 40s4.1 2.9 4.8 3.7c.7.8.2 3.9.8 5.7.5 1.8 1.7 1.7 2.6 2.9.9 1.2.7 4.4.7 4.4s-2.9 1.2-5.4 1.8 2.3.4 8.2-2.5c5.9-2.9 8.7-5.7 8.7-5.7s-1.9 3.8-5.5 5.5-5.7 2.4-6 2.7-1.2 3-1.9 3.3c-.7.3-8.8 1.9-11 1.9-2.3 0 0 1.2 8-.7 8-1.8 9.6-3 11.3-4.1 1.6-1.1 5.5-4.1 5.5-4.1s-2.3 4.1-8.5 6.6c-6.2 2.6-7.4 3.8-10 4.6s-4.2 4-4.2 4 4.4-.1 5.4-.7 4.8-2.6 6.5-3.1 8.6-5.8 8.6-5.8-9.7 7.5-11.4 8.8c-1.8 1.3-2.3 1.2-2.3 1.2s19.4-.5 20.8-.6c1.4-.1 2.7-3.2 2.6-5.2s-.1-12.4 1.1-15.9c1.2-3.5 2.3-5.2 2.6-7.3.2-2.1-.5-4.1-1.7-5.1-1.3-1-2.4-2.2-2.4-2.2zM57.7 66.2s4.2-2.4 6.9-6.2 3.7-5.6 3.7-5.6-1.5 3.8-3.8 6.9-7.2 5.7-6.8 4.9z"/></svg>