<?xml version="1.0" encoding="utf-8"?>
<!-- Generator: Adobe Illustrator 17.1.0, SVG Export Plug-In . SVG Version: 6.00 Build 0)  -->
<!DOCTYPE svg PUBLIC "-//W3C//DTD SVG 1.1//EN" "http://www.w3.org/Graphics/SVG/1.1/DTD/svg11.dtd">
<svg version="1.1" id="Layer_1" xmlns="http://www.w3.org/2000/svg" xmlns:xlink="http://www.w3.org/1999/xlink" x="0px" y="0px"
	 width="75px" height="70px" viewBox="0 0 75 70" enable-background="new 0 0 75 70" xml:space="preserve">
<g>
	<path fill-rule="evenodd" clip-rule="evenodd" fill="#F9E9DB" d="M70.9,34.1c0,0-6-6-9.1-9.4c-3-3.5-2-5.4-1.9-7.6
		c0.1-2.3,0.2-2.3,1.2-3.3c1-1.1,2.5-2.1,2.8-2.9c0.3-0.8,0.5-0.9,0.1-1.3c-0.4-0.4-0.3-0.7-0.8-0.8c-0.5,0-0.3-0.5-0.7-0.7
		c-0.3-0.2-0.7-0.4-1.3-1c-0.6-0.7-0.3-1-0.7-1c-0.4,0-0.8-0.2-0.8-0.6c0-0.4,0.1-1.2,0.1-1.5c0-0.4-2.4-0.1-3.4-0.5
		c-1-0.4-1.1-1.2-3.2-2.4c-2.1-1.3-3.8-1.2-7.3-1.3c-3.5-0.1-7.5,3.8-8.6,7.5c-1.1,3.7-0.5,5.7-1.3,8.6S34,21.9,34,21.9
		s-7,0.1-8.3-0.3c-1.3-0.4-2.9-1.5-5.4-1.1s-4.7,0.5-5.2,1c-0.5,0.5,0.8,0.5,1.6,0.5c0.8-0.1,2.3-0.2,2.1,0.3
		c-0.1,0.5-1.5,1.2-2.9,1.7c-1.5,0.5-2.7,0.5-3.4,0.8c-0.7,0.2,0.5,1.4,1.8,1.8c1.3,0.4,3.1,0.3,3.3,0.8c0.2,0.5,1.2,0.9,2.1,0.7
		c0.9-0.2,3.7-1.9,3.7-1.9s1.8-1.3,3.4-1c1.6,0.2,5.9,1.3,5.4,1.8c-0.5,0.5-1.8,3.6-7,6.5s-7.4,3-7.4,3s1.9,0.7,4.6-0.1
		c2.7-0.8,12.2-3.7,12.2-3.7S19.7,44.3,17.4,44.5c-2.3,0.2-5.7-0.2-6.7,0.1c-1,0.4-2,0.8-3,0.8c-1,0-3.4,0.1-4.3,0.2
		c-0.9,0.1-2,1.8,0.1,1.9c2.1,0.1,5.8-0.4,5.8,0.1c-0.1,0.5-0.5,1.9-1.3,2.5s-2,1.8-2.5,2.3c-0.5,0.5-2.2,1.8-3.1,2.3
		c-0.9,0.5-2,1.5-2.2,2c-0.2,0.5,1.2,1.7,5.5,1.6c4.3-0.1,6.3-1.5,8.9-3.6c2.6-2.1,4.4-4.1,6.6-5.4c2.3-1.3,8.5-3.2,11.4-4.5
		c2.9-1.3,10.4-4.8,10.4-4.8s4.1,2.9,4.8,3.7c0.7,0.8,0.2,3.9,0.8,5.7c0.5,1.8,1.7,1.7,2.6,2.9c0.9,1.2,0.7,4.4,0.7,4.4
		s-2.9,1.2-5.4,1.8s2.3,0.4,8.2-2.5c5.9-2.9,8.7-5.7,8.7-5.7s-1.9,3.8-5.5,5.5s-5.7,2.4-6,2.7s-1.2,3-1.9,3.3
		c-0.7,0.3-8.8,1.9-11,1.9c-2.3,0,0,1.2,8-0.7c8-1.8,9.6-3,11.3-4.1c1.6-1.1,5.5-4.1,5.5-4.1s-2.3,4.1-8.5,6.6
		c-6.2,2.6-7.4,3.8-10,4.6S41.1,70,41.1,70s4.4-0.1,5.4-0.7s4.8-2.6,6.5-3.1s8.6-5.8,8.6-5.8s-9.7,7.5-11.4,8.8
		c-1.8,1.3-2.3,1.2-2.3,1.2s19.4-0.5,20.8-0.6c1.4-0.1,2.7-3.2,2.6-5.2s-0.1-12.4,1.1-15.9c1.2-3.5,2.3-5.2,2.6-7.3
		c0.2-2.1-0.5-4.1-1.7-5.1C72,35.3,70.9,34.1,70.9,34.1L70.9,34.1z M57.7,66.2c0,0,4.2-2.4,6.9-6.2s3.7-5.6,3.7-5.6
		s-1.5,3.8-3.8,6.9S57.3,67,57.7,66.2L57.7,66.2z"/>
</g>
</svg>
